<svg xmlns="http://www.w3.org/2000/svg"  data-name="Layer 1" viewBox="0 0 32 32"><path fill="#ff5a5f" d="M15.5,6a.5.5,0,0,0,.5-.5v-2a.5.5,0,0,0-1,0v2A.5.5,0,0,0,15.5,6Zm1.776-.053a.5.5,0,0,0,.671-.224l1-2a.5.5,0,0,0-.895-.447l-1,2A.5.5,0,0,0,17.276,5.947Zm-4.224-.224a.5.5,0,0,0,.895-.447l-1-2a.5.5,0,1,0-.895.447ZM27.5,11V10a.472.472,0,0,0-.01-.051,3.972,3.972,0,0,0-1.6-7.41.492.492,0,0,0-.146-.029h-.01a.449.449,0,0,0-.044.009c-.063,0-.122-.019-.186-.019a3.987,3.987,0,0,0-1.99,7.449A.472.472,0,0,0,23.5,10v1H22.105a1.491,1.491,0,0,1-.832-.252l-5.5-3.664c-.01-.007-.024-.005-.035-.011s-.015-.018-.026-.023a413.707,413.707,0,0,1-.233-.04.465.465,0,0,0-.125.028.481.481,0,0,0-.095.021c-.014.008-.021.024-.034.033s-.03.008-.042.018l-4.452,3.562A1.5,1.5,0,0,1,9.8,11H8.5V10a.472.472,0,0,0-.01-.051A3.987,3.987,0,0,0,6.5,2.5c-.068,0-.131.017-.2.02a.475.475,0,0,0-.052-.01.484.484,0,0,0-.153.031A3.972,3.972,0,0,0,4.51,9.949.472.472,0,0,0,4.5,10v1A4.5,4.5,0,0,0,0,15.5v6A2.5,2.5,0,0,0,2.5,24H3v6.5A1.5,1.5,0,0,0,4.5,32H8.595a1.5,1.5,0,0,0,1.5-1.405L10,21.534l.966-6.767,3.72-2.975a3.483,3.483,0,0,0,.865-1.049,3.477,3.477,0,0,0,1.007,1.064l4.479,2.985L22,21.534l-.087,9.115A1.494,1.494,0,0,0,23.405,32H27.5A1.5,1.5,0,0,0,29,30.5V24h.5A2.5,2.5,0,0,0,32,21.5v-6A4.5,4.5,0,0,0,27.5,11ZM6.5,3.5A3,3,0,0,1,9.443,5.938l-1.6-.645a2.515,2.515,0,0,0-1.618-.086l-2.671.759A3,3,0,0,1,6.5,3.5ZM3.549,6.988a.475.475,0,0,0,.087-.007L6.5,6.168a1.5,1.5,0,0,1,.972.052l1.844.744a.5.5,0,0,0,.138.027,2.989,2.989,0,0,1-5.9,0ZM7.5,10.358V12a1,1,0,0,1-2,0V10.358a3.954,3.954,0,0,0,1,.142A3.954,3.954,0,0,0,7.5,10.358ZM3,21.5V23H2.5A1.5,1.5,0,0,1,1,21.5V21H3ZM8.595,31H7V24.5a.5.5,0,0,0-1,0V31H4.5a.5.5,0,0,1-.5-.5V22H9l.088,8.55A.5.5,0,0,1,8.595,31Zm1.593-16.891a.5.5,0,0,0-.183.32L9.066,21H4V17.5a.5.5,0,0,0-1,0V20H1V15.5A3.5,3.5,0,0,1,4.5,12a2,2,0,0,0,4,0H9.8a2.51,2.51,0,0,0,1.562-.548L13,10.14v1.61a.478.478,0,0,0,.019.094ZM15,8.895v.164a2.486,2.486,0,0,1-.938,1.952L14,11.059V9.34l1-.8ZM25.5,3.5a3,3,0,0,1,2.946,2.465l-2.672-.759a2.517,2.517,0,0,0-1.618.086l-1.6.645A3,3,0,0,1,25.5,3.5ZM22.55,6.99a.5.5,0,0,0,.138-.027L24.53,6.22a1.512,1.512,0,0,1,.972-.052l2.861.813a.469.469,0,0,0,.087.007,2.989,2.989,0,0,1-5.9,0Zm3.95,3.368V12a1,1,0,0,1-2,0V10.358a3.593,3.593,0,0,0,2,0Zm-9.5.519a2.485,2.485,0,0,1-1-1.982v-.46L17,9.1ZM28,22.5v8a.5.5,0,0,1-.5.5H26V24.5a.5.5,0,0,0-1,0V31H23.405a.5.5,0,0,1-.5-.4L23,22h5Zm3-1A1.5,1.5,0,0,1,29.5,23H29V21h2ZM31,20H29V17.5a.5.5,0,0,0-1,0V21H22.934L22,14.429a.5.5,0,0,0-.218-.345L18,11.566v-1.8l2.719,1.812a2.486,2.486,0,0,0,1.387.42H23.5a2,2,0,0,0,4,0A3.5,3.5,0,0,1,31,15.5Z"/></svg>