<svg xmlns="http://www.w3.org/2000/svg" enable-background="new 0 0 66 66" viewBox="0 0 66 66"><path fill="#ff5a5f" d="M11.6,64.2c14,0,28,0,41.9,0c0.6,0,1-0.4,1-1v-32l2.1,1.9c1.6,1.4,4,1.4,5.5,0c1.8-1.6,1.8-4.4,0-6.1L35.3,2.6
		c-1.5-1.3-3.8-1.3-5.3,0l-10.9,9.9V7.5h1.7c0.6,0,1-0.4,1-1s-0.4-1-1-1c-4.8,0-8,0-12.8,0c-0.6,0-1,0.4-1,1s0.4,1,1,1h1.7V21
		L3.1,27c-1.8,1.6-1.8,4.5,0,6.1c1.5,1.4,4,1.4,5.5,0l2.1-1.9v18.9H8v-1.8c0-0.6-0.4-1-1-1s-1,0.4-1,1v1.8H3v-1.8c0-0.6-0.4-1-1-1
		s-1,0.4-1,1V59c0,0.6,0.4,1,1,1s1-0.4,1-1v-1.8h3V59c0,0.6,0.4,1,1,1s1-0.4,1-1v-1.8h2.6v5.9C10.6,63.7,11.1,64.2,11.6,64.2z
		 M33.8,62.2l0-21.2h13v21.2H33.8z M11.6,7.5h5.4v6.8l-5.4,4.9V7.5z M7.2,31.6c-0.8,0.7-2,0.7-2.8,0c-0.9-0.8-0.9-2.3,0-3.1
		c2.8-2.5-10,9,26.9-24.4c0.7-0.7,1.9-0.7,2.6,0l26.9,24.4c0.9,0.8,0.9,2.3,0,3.1c-0.8,0.7-2,0.7-2.8,0L33.3,9.2
		c-0.4-0.3-1-0.3-1.3,0C14.7,24.8,18.5,21.3,7.2,31.6z M32.6,11.3l20,18.1v32.8h-3.8V41h0.6c0.6,0,1-0.4,1-1s-0.4-1-1-1
		c-5.4,0-12.8,0-18.2,0c-0.6,0-1,0.4-1,1s0.4,1,1,1h0.6v21.2H12.6V29.4L32.6,11.3z M3,55.2v-3.2h3v3.2H3z M8,55.2v-3.2h2.6v3.2H8z"/><path fill="#ff5a5f" d="M32.6 33.6c4.1 0 7.5-3.4 7.5-7.5s-3.4-7.5-7.5-7.5-7.5 3.4-7.5 7.5S28.5 33.6 32.6 33.6zM27.2 27.1h4.4v4.4C29.4 31.1 27.6 29.3 27.2 27.1zM33.6 31.5v-4.4H38C37.6 29.3 35.8 31.1 33.6 31.5zM38 25.1h-4.4v-4.4C35.8 21.1 37.6 22.9 38 25.1zM31.6 20.7v4.4h-4.4C27.6 22.9 29.4 21.1 31.6 20.7zM15.8 56.8h12.8c.6 0 1-.4 1-1V44.5c0-.6-.4-1-1-1H15.8c-.6 0-1 .4-1 1v11.2C14.8 56.3 15.3 56.8 15.8 56.8zM16.8 51.2h4.4v3.6h-4.4V51.2zM23.2 54.8v-3.6h4.4v3.6H23.2zM27.6 49.2h-4.4v-3.6h4.4V49.2zM21.2 45.5v3.6h-4.4v-3.6H21.2zM36.1 49c-.6 0-1 .4-1 1v2c0 .6.4 1 1 1s1-.4 1-1v-2C37.1 49.5 36.6 49 36.1 49zM60.5 64.4c.6 0 1-.4 1-1v-7.8c2-.5 3.5-2.2 3.5-4.4 0-1.9-1.6-7.6-4.5-7.6S56 49.3 56 51.2c0 2.1 1.5 3.9 3.5 4.4v7.8C59.5 64 59.9 64.4 60.5 64.4zM58 51.2c0-2.1 1.6-5.6 2.5-5.6.9 0 2.5 3.6 2.5 5.6 0 1-.6 1.9-1.5 2.3v-.9c0-.6-.4-1-1-1s-1 .4-1 1v.9C58.6 53.1 58 52.2 58 51.2z"/></svg>