<svg xmlns="http://www.w3.org/2000/svg" width="48" height="48"><path d="M24 0C10.751 0 0 10.751 0 24s10.751 24 24 24 24-10.751 24-24S37.249 0 24 0zm0 1c12.708 0 23 10.292 23 23 0 12.709-10.292 23-23 23S1 36.709 1 24C1 11.292 11.292 1 24 1zm-1.996 7.998a.5.5 0 0 0-.365.154l-11.5 12a.5.5 0 0 0 .361.846H12v13.5a.5.5 0 0 0 .5.5h15.633l-.002-.025c-.174 0-.34 0-.557-.028a2.318 2.318 0 0 1-.57-.138 1.647 1.647 0 0 1-.889-.735c-.015-.025-.02-.046-.033-.07H25V26.5a.5.5 0 0 0-.5-.5h-5a.5.5 0 0 0-.5.5v8.502h-6v-13h18v2.234c.039.021.088.043.127.063.09-.15.171-.295.305-.469.097-.127.206-.263.404-.424.04-.033.113-.07.164-.105V22h1.5a.5.5 0 0 0 .361-.846L32 19.213a.5.5 0 0 0 0-.012V13.5a.5.5 0 0 0-.5-.5h-2a.5.5 0 0 0-.5.5v2.582l-6.639-6.928A.5.5 0 0 0 22.004 9v-.002zM22 10.223l10.326 10.775H11.674L22 10.223zm8 3.775h1v4.168l-1.012-1.055a.5.5 0 0 0 .012-.113v-3zm2.926 10a.7.7 0 0 0-.46.18 1.47 1.47 0 0 0-.241.258c-.14.18-.26.385-.377.584a9.34 9.34 0 0 1-.32.52c-.017.022-.025.025-.042.042-.022-.01-.031 0-.056-.014-.144-.064-.342-.172-.545-.28-.204-.11-.41-.22-.623-.304a1.405 1.405 0 0 0-.342-.095.705.705 0 0 0-.484.084.709.709 0 0 0-.307.384c-.046.121-.067.231-.082.344-.03.226-.031.465-.033.695-.003.231-.005.455-.018.612-.002.027-.01.033-.016.056-.022.01-.029.015-.056.018-.157.016-.379.02-.61.027-.23.01-.467.015-.693.05-.113.016-.224.04-.344.089a.708.708 0 0 0-.377.314.71.71 0 0 0-.074.487c.02.128.058.232.102.338.087.21.205.418.318.619.114.2.224.395.291.537.012.025.01.037.016.059-.016.017-.019.027-.041.043-.127.093-.318.21-.514.332-.196.121-.398.246-.576.388-.09.071-.175.144-.254.246a.712.712 0 0 0-.168.463.705.705 0 0 0 .178.457c.081.1.169.175.26.244.18.14.385.26.583.377.2.118.39.229.52.319.023.016.026.026.043.043-.006.022-.003.03-.014.056-.064.144-.172.34-.28.543a5.83 5.83 0 0 0-.304.625 1.463 1.463 0 0 0-.095.342.708.708 0 0 0 .084.484.71.71 0 0 0 .384.307c.121.046.233.067.346.082.226.03.463.03.693.033.231 0 .455 0 .612.018.027 0 .033.01.054.016.007.022.015.028.018.056.017.157.022.379.03.61.006.23.016.467.05.693.017.113.04.224.088.344.049.12.127.27.314.377a.71.71 0 0 0 .487.074c.128-.02.234-.058.34-.102.21-.088.416-.205.617-.318.2-.114.395-.224.537-.291.025-.012.034-.01.057-.016.016.016.026.018.043.041.092.127.21.318.332.514.121.196.246.398.388.576.072.09.144.175.246.254a.7.7 0 0 0 .922-.01c.1-.082.173-.169.242-.26.14-.18.26-.385.377-.583.118-.2.23-.393.32-.522.016-.021.024-.023.04-.039.022.01.032 0 .058.014.144.064.342.168.545.277.204.11.41.224.623.307.107.042.214.076.342.093a.705.705 0 0 0 .484-.084.708.708 0 0 0 .307-.384c.046-.121.067-.233.082-.346.03-.226.031-.463.033-.693.003-.231.005-.453.018-.61.002-.028.01-.035.016-.058a.143.143 0 0 1 .056-.016 8.93 8.93 0 0 1 .61-.031c.23-.01.467-.013.693-.047a1.44 1.44 0 0 0 .344-.088.712.712 0 0 0 .377-.316.71.71 0 0 0 .074-.487 1.467 1.467 0 0 0-.102-.34c-.087-.21-.205-.416-.318-.617-.114-.2-.224-.395-.291-.537-.012-.025-.01-.034-.016-.057.016-.017.019-.027.041-.043.127-.092.318-.208.514-.33.196-.121.398-.246.576-.388.09-.071.175-.148.254-.25a.706.706 0 0 0 .168-.461.711.711 0 0 0-.178-.46c-.081-.1-.169-.17-.26-.24a5.844 5.844 0 0 0-.583-.376 9.259 9.259 0 0 1-.52-.32c-.023-.017-.026-.027-.043-.044.006-.022.003-.033.014-.058.064-.144.172-.34.28-.543.11-.204.22-.413.304-.625.041-.107.078-.21.095-.338a.718.718 0 0 0-.084-.488.709.709 0 0 0-.384-.307 1.48 1.48 0 0 0-.346-.08c-.226-.03-.463-.03-.693-.033a6.08 6.08 0 0 1-.612-.02c-.028 0-.034-.01-.056-.015-.007-.022-.013-.03-.016-.057-.017-.157-.022-.379-.03-.61a5.846 5.846 0 0 0-.05-.693 1.463 1.463 0 0 0-.088-.344.706.706 0 0 0-.314-.377.707.707 0 0 0-.487-.074c-.128.021-.234.06-.34.104-.21.088-.416.203-.617.316-.2.114-.395.226-.537.293-.024.011-.033.01-.055.016-.017-.017-.027-.02-.045-.043a9.377 9.377 0 0 1-.332-.514c-.121-.196-.246-.398-.388-.576a1.453 1.453 0 0 0-.246-.254.71.71 0 0 0-.463-.168zm.011 1.172c.074.104.15.21.237.351.118.192.241.395.373.577.132.181.214.384.588.48.374.096.541-.043.744-.139.203-.095.407-.213.603-.324a6.56 6.56 0 0 1 .38-.197c.01.126.022.26.027.426.007.225.011.46.035.683.023.223-.006.44.27.71.275.27.49.234.714.253.224.02.46.022.686.024.166 0 .297.008.424.015a6.574 6.574 0 0 1-.188.381c-.106.199-.223.407-.314.611-.091.205-.225.377-.121.749.103.371.308.448.492.576.184.128.39.247.584.361.143.085.252.158.357.229-.104.073-.21.148-.351.236-.192.118-.397.241-.579.373-.18.132-.382.214-.478.588-.096.374.041.541.137.744.095.203.215.407.326.603.082.146.14.263.195.377a6.198 6.198 0 0 1-.422.028c-.225.01-.462.013-.685.037-.223.024-.44-.011-.71.267-.27.276-.234.492-.253.715-.02.224-.02.46-.022.686a6.684 6.684 0 0 1-.017.424 6.466 6.466 0 0 1-.383-.188c-.198-.106-.405-.221-.61-.312-.204-.091-.376-.225-.747-.121-.372.103-.45.308-.579.492-.128.184-.247.39-.36.584a6.626 6.626 0 0 1-.23.357 6.775 6.775 0 0 1-.234-.353c-.118-.192-.241-.395-.373-.577-.132-.18-.214-.382-.588-.478-.374-.096-.543.041-.746.137-.203.095-.405.215-.601.326-.145.082-.265.14-.38.195a6.624 6.624 0 0 1-.027-.424c-.007-.225-.011-.462-.035-.685-.023-.223.006-.44-.27-.71-.275-.27-.49-.232-.714-.251-.224-.02-.46-.02-.686-.022-.166 0-.297-.01-.424-.017a6.66 6.66 0 0 1 .19-.383c.106-.199.221-.404.312-.61.091-.204.225-.376.121-.747-.103-.372-.308-.45-.492-.579-.184-.128-.39-.244-.584-.359-.143-.084-.252-.157-.357-.228.104-.073.21-.15.351-.237.192-.118.397-.24.579-.373.18-.132.382-.214.478-.588.096-.374-.041-.541-.137-.744-.095-.203-.215-.41-.326-.605a6.618 6.618 0 0 1-.195-.375c.126-.012.256-.025.422-.03.225-.01.462-.01.685-.035.223-.024.44.01.71-.27.27-.275.234-.489.253-.712.02-.224.02-.46.022-.686.001-.166.008-.299.017-.426.116.053.236.11.383.188.198.106.405.221.61.312.204.091.376.227.747.124.372-.104.45-.309.579-.493.128-.184.247-.39.36-.584a6.66 6.66 0 0 1 .227-.357zM20 26.998h4v8h-4v-8zm12.957 0a4.006 4.006 0 0 0-3.955 4.041 4.006 4.006 0 0 0 4.041 3.955 4.006 4.006 0 0 0 3.955-4.04 4.006 4.006 0 0 0-4.041-3.956zm.01 1a2.992 2.992 0 0 1 3.031 2.967 2.99 2.99 0 0 1-2.967 3.03 2.99 2.99 0 0 1-3.029-2.968 2.99 2.99 0 0 1 2.965-3.029zm1.271 1.408-1.77 1.768-.353-.354-.353-.353-.707.707.353.353.354.354.707.707 2.476-2.475-.707-.707z" color="#000" font-family="sans-serif" font-weight="400" overflow="visible" style="line-height:normal;text-indent:0;text-align:start;text-decoration-line:none;text-decoration-style:solid;text-decoration-color:#000;text-transform:none;block-progression:tb;isolation:auto;mix-blend-mode:normal"/></svg>